<svg xmlns="http://www.w3.org/2000/svg" viewBox="0 0 800 800" fill="none"><defs></defs><rect x="0" y="0" width="800" height="800" rx="0" fill="#ffffff" /><path d="M 0 4 L 800 4" fill="none" stroke="#e2e8f0" stroke-width="2" opacity="0.35"/><path d="M 0 62 L 800 62" fill="none" stroke="#e2e8f0" stroke-width="2" opacity="0.35"/><path d="M 0 112 L 800 112" fill="none" stroke="#e2e8f0" stroke-width="2" opacity="0.35"/><path d="M 0 175 L 800 175" fill="none" stroke="#e2e8f0" stroke-width="2" opacity="0.35"/><path d="M 0 226 L 800 226" fill="none" stroke="#e2e8f0" stroke-width="2" opacity="0.35"/><path d="M 0 283 L 800 283" fill="none" stroke="#e2e8f0" stroke-width="2" opacity="0.35"/><path d="M 0 340 L 800 340" fill="none" stroke="#e2e8f0" stroke-width="2" opacity="0.35"/><path d="M 0 392 L 800 392" fill="none" stroke="#e2e8f0" stroke-width="2" opacity="0.35"/><path d="M 0 454 L 800 454" fill="none" stroke="#e2e8f0" stroke-width="2" opacity="0.35"/><path d="M 0 509 L 800 509" fill="none" stroke="#e2e8f0" stroke-width="2" opacity="0.35"/><path d="M 0 566 L 800 566" fill="none" stroke="#e2e8f0" stroke-width="2" opacity="0.35"/><path d="M 0 619 L 800 619" fill="none" stroke="#e2e8f0" stroke-width="2" opacity="0.35"/><path d="M 0 677 L 800 677" fill="none" stroke="#e2e8f0" stroke-width="2" opacity="0.35"/><path d="M 0 736 L 800 736" fill="none" stroke="#e2e8f0" stroke-width="2" opacity="0.35"/><path d="M 0 789 L 800 789" fill="none" stroke="#e2e8f0" stroke-width="2" opacity="0.35"/></svg>